{
    "accessors" : [
        {
            "bufferView" : 0,
            "componentType" : 5123,
            "count" : 6,
            "max" : [
                3
            ],
            "min" : [
                0
            ],
            "type" : "SCALAR"
        },
        {
            "bufferView" : 1,
            "componentType" : 5126,
            "count" : 4,
            "max" : [
                1.0,
                0.0,
                1.0
            ],
            "min" : [
                -1.0,
                0.0,
                -1.0
            ],
            "type" : "VEC3"
        },
        {
            "bufferView" : 2,
            "componentType" : 5126,
            "count" : 4,
            "max" : [
                0.0,
                1.0,
                -0.0
            ],
            "min" : [
                0.0,
                1.0,
                -0.0
            ],
            "type" : "VEC3"
        },
        {
            "bufferView" : 3,
            "componentType" : 5126,
            "count" : 4,
            "max" : [
                1.0,
                0.0,
                -0.0,
                1.0
            ],
            "min" : [
                1.0,
                0.0,
                -0.0,
                1.0
            ],
            "type" : "VEC4"
        },
        {
            "bufferView" : 4,
            "componentType" : 5126,
            "count" : 4,
            "max" : [
                1.0,
                1.0
            ],
            "min" : [
                0.0,
                0.0
            ],
            "type" : "VEC2"
        },
        {
            "bufferView" : 5,
            "componentType" : 5123,
            "count" : 10860,
            "max" : [
                6115
            ],
            "min" : [
                0
            ],
            "type" : "SCALAR"
        },
        {
            "bufferView" : 6,
            "componentType" : 5126,
            "count" : 6116,
            "max" : [
                -6079.72412109375,
                1869.122314453125,
                1553.0009765625
            ],
            "min" : [
                -6120.3271484375,
                1696.24072265625,
                -933.683349609375
            ],
            "type" : "VEC3"
        },
        {
            "bufferView" : 7,
            "componentType" : 5126,
            "count" : 6116,
            "max" : [
                1.0,
                1.0,
                1.0
            ],
            "min" : [
                -1.0,
                -1.0,
                -1.0
            ],
            "type" : "VEC3"
        },
        {
            "bufferView" : 8,
            "componentType" : 5123,
            "count" : 13824,
            "max" : [
                13493
            ],
            "min" : [
                0
            ],
            "type" : "SCALAR"
        },
        {
            "bufferView" : 9,
            "componentType" : 5126,
            "count" : 13494,
            "max" : [
                -6143.2421875,
                2239.35546875,
                -18326.9296875
            ],
            "min" : [
                -6203.4970703125,
                866.6240844726562,
                -24070.2890625
            ],
            "type" : "VEC3"
        },
        {
            "bufferView" : 10,
            "componentType" : 5126,
            "count" : 13494,
            "max" : [
                1.0,
                1.0,
                1.0
            ],
            "min" : [
                -1.0,
                -1.0,
                -1.0
            ],
            "type" : "VEC3"
        },
        {
            "bufferView" : 11,
            "componentType" : 5126,
            "count" : 13494,
            "max" : [
                1.0,
                1.0,
                1.0,
                1.0
            ],
            "min" : [
                -0.9983522295951843,
                -1.0,
                -1.0,
                -1.0
            ],
            "type" : "VEC4"
        },
        {
            "bufferView" : 12,
            "componentType" : 5126,
            "count" : 13494,
            "max" : [
                2.622541666030884,
                4.770835876464844
            ],
            "min" : [
                -2.873279094696045,
                -0.8744295835494995
            ],
            "type" : "VEC2"
        },
        {
            "bufferView" : 13,
            "componentType" : 5123,
            "count" : 9468,
            "max" : [
                5862
            ],
            "min" : [
                0
            ],
            "type" : "SCALAR"
        },
        {
            "bufferView" : 14,
            "componentType" : 5126,
            "count" : 5863,
            "max" : [
                -6080.76123046875,
                2011.144287109375,
                2287.54150390625
            ],
            "min" : [
                -6119.43798828125,
                1474.773681640625,
                1667.6796875
            ],
            "type" : "VEC3"
        },
        {
            "bufferView" : 15,
            "componentType" : 5126,
            "count" : 5863,
            "max" : [
                1.0,
                1.0,
                1.0
            ],
            "min" : [
                -1.0,
                -0.9999999403953552,
                -1.0
            ],
            "type" : "VEC3"
        },
        {
            "bufferView" : 16,
            "componentType" : 5123,
            "count" : 6,
            "max" : [
                3
            ],
            "min" : [
                0
            ],
            "type" : "SCALAR"
        },
        {
            "bufferView" : 17,
            "componentType" : 5126,
            "count" : 4,
            "max" : [
                1.0,
                0.0,
                1.0
            ],
            "min" : [
                -1.0,
                0.0,
                -1.0
            ],
            "type" : "VEC3"
        },
        {
            "bufferView" : 18,
            "componentType" : 5126,
            "count" : 4,
            "max" : [
                0.0,
                1.0,
                -0.0
            ],
            "min" : [
                0.0,
                1.0,
                -0.0
            ],
            "type" : "VEC3"
        },
        {
            "bufferView" : 19,
            "componentType" : 5126,
            "count" : 4,
            "max" : [
                1.0,
                0.0,
                -0.0,
                1.0
            ],
            "min" : [
                1.0,
                0.0,
                -0.0,
                1.0
            ],
            "type" : "VEC4"
        },
        {
            "bufferView" : 20,
            "componentType" : 5126,
            "count" : 4,
            "max" : [
                1.0,
                1.0
            ],
            "min" : [
                0.0,
                0.0
            ],
            "type" : "VEC2"
        }
    ],
    "asset" : {
        "generator" : "Khronos Blender glTF 2.0 exporter",
        "version" : "2.0"
    },
    "bufferViews" : [
        {
            "buffer" : 0,
            "byteLength" : 12,
            "byteOffset" : 0,
            "target" : 34963
        },
        {
            "buffer" : 0,
            "byteLength" : 48,
            "byteOffset" : 12,
            "target" : 34962
        },
        {
            "buffer" : 0,
            "byteLength" : 48,
            "byteOffset" : 60,
            "target" : 34962
        },
        {
            "buffer" : 0,
            "byteLength" : 64,
            "byteOffset" : 108,
            "target" : 34962
        },
        {
            "buffer" : 0,
            "byteLength" : 32,
            "byteOffset" : 172,
            "target" : 34962
        },
        {
            "buffer" : 0,
            "byteLength" : 21720,
            "byteOffset" : 204,
            "target" : 34963
        },
        {
            "buffer" : 0,
            "byteLength" : 73392,
            "byteOffset" : 21924,
            "target" : 34962
        },
        {
            "buffer" : 0,
            "byteLength" : 73392,
            "byteOffset" : 95316,
            "target" : 34962
        },
        {
            "buffer" : 0,
            "byteLength" : 27648,
            "byteOffset" : 168708,
            "target" : 34963
        },
        {
            "buffer" : 0,
            "byteLength" : 161928,
            "byteOffset" : 196356,
            "target" : 34962
        },
        {
            "buffer" : 0,
            "byteLength" : 161928,
            "byteOffset" : 358284,
            "target" : 34962
        },
        {
            "buffer" : 0,
            "byteLength" : 215904,
            "byteOffset" : 520212,
            "target" : 34962
        },
        {
            "buffer" : 0,
            "byteLength" : 107952,
            "byteOffset" : 736116,
            "target" : 34962
        },
        {
            "buffer" : 0,
            "byteLength" : 18936,
            "byteOffset" : 844068,
            "target" : 34963
        },
        {
            "buffer" : 0,
            "byteLength" : 70356,
            "byteOffset" : 863004,
            "target" : 34962
        },
        {
            "buffer" : 0,
            "byteLength" : 70356,
            "byteOffset" : 933360,
            "target" : 34962
        },
        {
            "buffer" : 0,
            "byteLength" : 12,
            "byteOffset" : 1003716,
            "target" : 34963
        },
        {
            "buffer" : 0,
            "byteLength" : 48,
            "byteOffset" : 1003728,
            "target" : 34962
        },
        {
            "buffer" : 0,
            "byteLength" : 48,
            "byteOffset" : 1003776,
            "target" : 34962
        },
        {
            "buffer" : 0,
            "byteLength" : 64,
            "byteOffset" : 1003824,
            "target" : 34962
        },
        {
            "buffer" : 0,
            "byteLength" : 32,
            "byteOffset" : 1003888,
            "target" : 34962
        }
    ],
    "buffers" : [
        {
            "byteLength" : 1003920,
            "uri" : "data:application/octet-stream;base64,"
        }
    ],
    "images" : [
        {
            "mimeType" : "image/jpeg",
            "name" : "info",
            "uri" : "data:image/jpeg;base64,"
        },
        {
            "mimeType" : "image/jpeg",
            "name" : "green",
            "uri" : "data:image/jpeg;base64,"
        },
        {
            "mimeType" : "image/jpeg",
            "name" : "\u0441\u0435\u0442\u043a\u0430",
            "uri" : "data:image/jpeg;base64,"
        }
    ],
    "materials" : [
        {
            "name" : "Material.003",
            "pbrMetallicRoughness" : {
                "baseColorFactor" : [
                    0.6400000190734865,
                    0.6400000190734865,
                    0.6400000190734865,
                    1.0
                ],
                "baseColorTexture" : {
                    "index" : 0
                },
                "metallicFactor" : 0.0
            }
        },
        {
            "name" : "Material.004",
            "pbrMetallicRoughness" : {
                "baseColorFactor" : [
                    0.6400000190734865,
                    0.6400000190734865,
                    0.6400000190734865,
                    1.0
                ],
                "baseColorTexture" : {
                    "index" : 1
                },
                "metallicFactor" : 0.0
            }
        },
        {
            "emissiveFactor" : [
                0.2900000214576721,
                0.2900000214576721,
                0.2900000214576721
            ],
            "name" : "PVC White Glossy",
            "pbrMetallicRoughness" : {
                "baseColorFactor" : [
                    0.8660377264022827,
                    0.8660377264022827,
                    0.8660377264022827,
                    1.0
                ],
                "metallicFactor" : 0.0
            }
        },
        {
            "name" : "recedption color.002",
            "pbrMetallicRoughness" : {
                "baseColorFactor" : [
                    0.6274510000266282,
                    0.6274510000266282,
                    0.6274510000266282,
                    1.0
                ],
                "baseColorTexture" : {
                    "index" : 2
                },
                "metallicFactor" : 0.0
            }
        }
    ],
    "meshes" : [
        {
            "name" : "Plane",
            "primitives" : [
                {
                    "attributes" : {
                        "NORMAL" : 2,
                        "POSITION" : 1,
                        "TANGENT" : 3,
                        "TEXCOORD_0" : 4
                    },
                    "indices" : 0,
                    "material" : 0
                }
            ]
        },
        {
            "name" : "Shape026",
            "primitives" : [
                {
                    "attributes" : {
                        "NORMAL" : 7,
                        "POSITION" : 6
                    },
                    "indices" : 5,
                    "material" : 2
                }
            ]
        },
        {
            "name" : "0      011.001",
            "primitives" : [
                {
                    "attributes" : {
                        "NORMAL" : 10,
                        "POSITION" : 9,
                        "TANGENT" : 11,
                        "TEXCOORD_0" : 12
                    },
                    "indices" : 8,
                    "material" : 3
                }
            ]
        },
        {
            "name" : "Shape009",
            "primitives" : [
                {
                    "attributes" : {
                        "NORMAL" : 15,
                        "POSITION" : 14
                    },
                    "indices" : 13,
                    "material" : 2
                }
            ]
        },
        {
            "name" : "Plane.001",
            "primitives" : [
                {
                    "attributes" : {
                        "NORMAL" : 18,
                        "POSITION" : 17,
                        "TANGENT" : 19,
                        "TEXCOORD_0" : 20
                    },
                    "indices" : 16,
                    "material" : 1
                }
            ]
        }
    ],
    "nodes" : [
        {
            "mesh" : 2,
            "name" : "0      011.001",
            "rotation" : [
                0.9998362064361572,
                -0.014996531419456005,
                0.010078542865812778,
                0.0010534983593970537
            ],
            "scale" : [
                9.99692638288252e-05,
                7.259457197505981e-05,
                8.398840873269364e-05
            ],
            "translation" : [
                -0.036124441772699356,
                0.2403174191713333,
                -1.8295683860778809
            ]
        },
        {
            "mesh" : 0,
            "name" : "Plane",
            "rotation" : [
                0.7033652067184448,
                0.00027572468388825655,
                0.00893984455615282,
                0.7107724547386169
            ],
            "scale" : [
                0.042417436838150024,
                1.001889944076538,
                0.14273393154144287
            ],
            "translation" : [
                -0.11630755662918091,
                0.1292022466659546,
                -0.2980170249938965
            ]
        },
        {
            "mesh" : 4,
            "name" : "Plane.001",
            "rotation" : [
                0.009358408860862255,
                -0.0034500216133892536,
                -0.7090075016021729,
                0.7051304578781128
            ],
            "scale" : [
                0.061768267303705215,
                1.0021892786026,
                0.24579550325870514
            ],
            "translation" : [
                -0.7063409090042114,
                0.14538556337356567,
                -0.06403571367263794
            ]
        },
        {
            "mesh" : 3,
            "name" : "Shape009",
            "rotation" : [
                0.0020994911901652813,
                0.9990730881690979,
                0.025005750358104706,
                0.034975629299879074
            ],
            "scale" : [
                0.6063479781150818,
                0.8174856901168823,
                0.8123621344566345
            ],
            "translation" : [
                -11355.2421875,
                428.7674560546875,
                3090.012939453125
            ]
        },
        {
            "mesh" : 1,
            "name" : "Shape026",
            "rotation" : [
                -0.006360714789479971,
                0.006439086049795151,
                4.0936851291917264e-05,
                0.9999590516090393
            ],
            "scale" : [
                2.301332473754883,
                1.171018362045288,
                0.935238242149353
            ],
            "translation" : [
                6486.880859375,
                -113.78195190429688,
                -129.7276611328125
            ]
        },
        {
            "children" : [
                3,
                4
            ],
            "name" : "$$$DUMMY.Group11177",
            "scale" : [
                9.999999747378752e-05,
                9.999999747378752e-05,
                9.999999747378752e-05
            ],
            "translation" : [
                0.0742800235748291,
                -0.02425297163426876,
                -0.1382807493209839
            ]
        }
    ],
    "samplers" : [
        {},
        {
            "magFilter" : 9729,
            "minFilter" : 9986,
            "wrapS" : 33071,
            "wrapT" : 33071
        }
    ],
    "scene" : 0,
    "scenes" : [
        {
            "name" : "Scene",
            "nodes" : [
                1,
                5,
                0,
                2
            ]
        }
    ],
    "textures" : [
        {
            "sampler" : 1,
            "source" : 0
        },
        {
            "sampler" : 0,
            "source" : 1
        },
        {
            "sampler" : 0,
            "source" : 2
        }
    ]
}
