# Blender v2.79 (sub 0) OBJ File: 'grafikaFINweb fin.blend'
# www.blender.org
mtllib grafikaFIXtoy2.mtl
o Grid.002
v -0.786471 -1.177771 0.602695
v -0.840281 -1.282941 -1.016880
v 1.129820 -1.270887 0.545074
v 1.076011 -1.376057 -1.074501
vt 0.000000 0.000000
vt 0.000000 1.000000
vt 1.000000 1.000000
vt 1.000000 0.000000
vn 0.0464 0.9967 -0.0663
usemtl Material.002
s off
f 1/1/1 3/2/1 4/3/1 2/4/1
o Grid.001_Grid.000
v -0.853196 -1.318258 -1.030032
v -0.807506 -1.207277 0.590313
v 1.063483 -1.420206 -1.077095
v 1.109173 -1.309225 0.543250
vt 0.000000 0.000000
vt 0.000000 1.000000
vt 1.000000 1.000000
vt 1.000000 0.000000
vn -0.0513 -0.9963 0.0697
usemtl Material.000
s off
f 5/5/2 7/6/2 8/7/2 6/8/2
