# Blender v2.79 (sub 0) OBJ File: 'grafikaFINweb fin.blend'
# www.blender.org
mtllib grafikaFIXduck.mtl
o Grid.007
v -1.076560 -1.655495 0.615445
v 0.755950 -1.555434 0.677132
v -1.029064 -1.559545 -0.951141
v 0.803446 -1.459484 -0.889454
vt 0.000000 0.000000
vt 0.000000 1.000000
vt 1.000000 1.000000
vt 1.000000 0.000000
vn 0.0564 -0.9966 -0.0593
usemtl Material.007
s off
f 1/1/1 3/2/1 4/3/1 2/4/1
o Grid.006
v 0.769102 -1.518689 0.687881
v -1.063796 -1.625397 0.635307
v 0.808039 -1.415408 -0.879195
v -1.024859 -1.522116 -0.931769
vt 0.000000 0.000000
vt 0.000000 1.000000
vt 1.000000 1.000000
vt 1.000000 0.000000
vn -0.0598 0.9961 0.0642
usemtl Material.006
s off
f 5/5/2 7/6/2 8/7/2 6/8/2
