# Blender v2.79 (sub 0) OBJ File: 'grafikaFINweb fin.blend'
# www.blender.org
mtllib grafikaFIXtoy06.mtl
o Grid.011
v 0.956581 -1.330030 0.446384
v -0.874159 -1.437457 0.511363
v 0.905008 -1.315190 -0.982104
v -0.925732 -1.422616 -0.917125
vt 0.000000 0.000000
vt 0.000000 1.000000
vt 1.000000 1.000000
vt 1.000000 0.000000
vn -0.0581 0.9982 0.0125
usemtl Material.012
s off
f 1/1/1 3/2/1 4/3/1 2/4/1
o Grid.010
v -0.886472 -1.475066 0.517968
v 0.944664 -1.361668 0.462545
v -0.930233 -1.466840 -0.911025
v 0.900903 -1.353442 -0.966448
vt 0.000000 0.000000
vt 0.000000 1.000000
vt 1.000000 1.000000
vt 1.000000 0.000000
vn 0.0616 -0.9981 -0.0076
usemtl Material.011
s off
f 5/5/2 7/6/2 8/7/2 6/8/2
