# Blender v2.79 (sub 0) OBJ File: 'grafikaFINweb fin.blend'
# www.blender.org
mtllib grafikaFIX.mtl
o Grid.009
v 0.870209 -1.008740 0.809061
v -0.961983 -1.053378 0.821263
v 0.858349 -0.921753 -0.653693
v -0.973844 -0.966392 -0.641491
vt 0.000000 0.000000
vt 0.000000 1.000000
vt 1.000000 1.000000
vt 1.000000 0.000000
vn -0.0239 0.9979 0.0595
usemtl Material.010
s off
f 1/1/1 3/2/1 4/3/1 2/4/1
o Grid.008
v -0.975472 -1.091231 0.826788
v 0.856751 -1.041116 0.824417
v -0.979551 -1.011294 -0.636237
v 0.852671 -0.961180 -0.638608
vt 0.000000 0.000000
vt 0.000000 1.000000
vt 1.000000 1.000000
vt 1.000000 0.000000
vn 0.0272 -0.9981 -0.0546
usemtl Material.009
s off
f 5/5/2 7/6/2 8/7/2 6/8/2
