# Blender v2.79 (sub 0) OBJ File: 'grafikaFINweb fin.blend'
# www.blender.org
mtllib grafikaFIXtoy1.mtl
o Grid.003_Grid.005
v -0.775027 -0.522910 0.986758
v 1.056481 -0.679055 0.900627
v -0.863505 -0.683499 -0.603524
v 0.968003 -0.839644 -0.689656
vt 0.000000 0.000000
vt 0.000000 1.000000
vt 1.000000 1.000000
vt 1.000000 0.000000
vn -0.0796 -0.9913 0.1045
usemtl Material.008
s off
f 1/1/1 3/2/1 4/3/1 2/4/1
o Grid.000_Grid.001
v 1.104391 -0.654042 0.880471
v -0.726647 -0.490914 0.975494
v 1.008398 -0.805899 -0.708556
v -0.822639 -0.642771 -0.613534
vt 0.000000 0.000000
vt 0.000000 1.000000
vt 1.000000 1.000000
vt 1.000000 0.000000
vn 0.0832 0.9915 -0.0998
usemtl Material.001
s off
f 5/5/2 7/6/2 8/7/2 6/8/2
